<?xml version="1.0" encoding="UTF-8"?>
<svg width="420pt" height="360pt" version="1.1" viewBox="140 150 420 260" xmlns="http://www.w3.org/2000/svg" xmlns:xlink="http://www.w3.org/1999/xlink">
 <g>
  <path d="m350 106.4c-9.9297 0-18.887 4.8828-23.977 13.477l-173.77 292.25v0.17578c-5.1172 8.5586-5.0859 19.059 0 27.648 5.1055 8.6289 14.098 13.746 24.148 13.652 2.9961 0.011719 5.8672-1.1758 7.9805-3.2969 2.1133-2.1211 3.2891-5 3.2656-7.9922-0.023437-2.9961-1.2422-5.8555-3.3906-7.9414-2.1445-2.0898-5.0352-3.2305-8.0273-3.1719-1.6445 0-4.0039-1.4062-4.7266-2.625-0.71094-1.2031-0.72656-3.5234 0-4.7227v-0.17578l173.77-292.25c0.003906-0.058593 0.003906-0.11719 0-0.17578 0.71094-1.1992 3.0273-2.4492 4.7266-2.4492s4.0156 1.25 4.7266 2.4492c-0.003906 0.058594-0.003906 0.11719 0 0.17578l173.77 292.25v0.17578c0.72656 1.1992 0.71094 3.5195 0 4.7227s-3.0195 2.6328-4.7266 2.625c-2.9922-0.058594-5.8828 1.082-8.0273 3.1719-2.1484 2.0859-3.3672 4.9453-3.3906 7.9414-0.023438 2.9922 1.1523 5.8711 3.2656 7.9922 2.1133 2.1211 4.9844 3.3086 7.9805 3.2969 9.9844 0.054688 19.031-5.0078 24.148-13.652 5.0859-8.5898 5.1172-19.09 0-27.648v-0.17578l-173.77-292.25c-5.0898-8.5938-14.047-13.477-23.977-13.477zm-1.2266 117.43c-5.7695 0.63672-10.098 5.5703-9.9727 11.375v100.8c-0.042969 2.9961 1.1172 5.8867 3.2227 8.0234 2.1055 2.1328 4.9766 3.3359 7.9766 3.3359s5.8711-1.2031 7.9766-3.3359c2.1055-2.1367 3.2656-5.0273 3.2227-8.0234v-100.8c0.070312-3.2266-1.2539-6.3242-3.6328-8.5039-2.3828-2.1758-5.5859-3.2227-8.793-2.8711zm1.2266 140.18c-9.2773 0-16.801 7.5234-16.801 16.801 0 9.2773 7.5234 16.801 16.801 16.801s16.801-7.5234 16.801-16.801c0-9.2773-7.5234-16.801-16.801-16.801zm-135.45 67.199c-2.9727 0.14062-5.7656 1.4531-7.7695 3.6523-2 2.1992-3.0469 5.1016-2.9102 8.0742 0.14062 2.9688 1.4531 5.7656 3.6523 7.7656 2.1992 2.0039 5.1055 3.0469 8.0781 2.9102h268.8c3 0.039063 5.8906-1.1211 8.0234-3.2266 2.1367-2.1055 3.3359-4.9766 3.3359-7.9766 0-2.9961-1.1992-5.8711-3.3359-7.9766-2.1328-2.1016-5.0234-3.2656-8.0234-3.2227h-268.8c-0.35156-0.015625-0.70312-0.015625-1.0508 0z"/>
 </g>
</svg>
