<svg width="24" height="22" viewBox="0 0 24 22" fill="none" xmlns="http://www.w3.org/2000/svg">
<path d="M1 5.58585V16.4142H6.41777L16.0526 21V1L6.41777 5.58585H1ZM6.01754 15.3171H2.17714V6.68294H6.01754V15.3171ZM14.8755 19.209L7.19468 15.5529V6.44707L14.8755 2.791V19.209Z" fill="#757575" stroke="#757575" stroke-width="0.05"/>
<path d="M18.3684 6.5556V7.5738C19.3154 7.5738 20.2235 7.93478 20.8931 8.57733C21.5627 9.21987 21.9389 10.0914 21.9389 11C21.9389 11.9087 21.5627 12.7802 20.8931 13.4228C20.2235 14.0653 19.3154 14.4263 18.3684 14.4263V15.4445C19.5968 15.4445 20.7748 14.9762 21.6434 14.1427C22.512 13.3092 23 12.1788 23 11C23 9.82131 22.512 8.69085 21.6434 7.85735C20.7748 7.02386 19.5968 6.5556 18.3684 6.5556V6.5556Z" fill="#757575" stroke="#757575" stroke-width="0.05"/>
</svg>
