<svg width="24" height="22" viewBox="0 0 24 22" fill="none" xmlns="http://www.w3.org/2000/svg">
<path d="M22.8366 4.72203C22.3281 3.30962 21.3541 2.20756 20.095 1.61761C19.2343 1.21304 18.2686 1 17.3009 1C15.1554 1 13.1694 2.0273 12.2408 3.61586L12.1028 3.85041L11.9824 3.64557C11.0548 2.05393 9.06779 1.02663 6.92123 1.02663C5.95451 1.02663 4.98882 1.23967 4.12916 1.64321C2.87006 2.23316 1.89613 3.33523 1.38651 4.74661C0.794537 6.38741 0.887194 8.30373 1.63257 9.87284C3.35496 13.4935 11.5109 20.619 11.8568 20.9211C11.9206 20.9775 12.0102 21 12.0967 21C12.1142 21 12.1317 20.999 12.1492 20.9969C12.2315 20.9887 12.3149 20.9437 12.3767 20.8843C12.8544 20.4674 20.8816 13.433 22.5885 9.84314C23.3349 8.27608 23.4276 6.36181 22.8366 4.72203ZM21.9193 9.52666C20.4142 12.6915 13.4268 18.9679 12.0967 20.1458C10.6924 18.9014 3.79663 12.6966 2.30382 9.55738C1.63978 8.16137 1.55741 6.45604 2.08453 4.99549C2.52723 3.77052 3.36526 2.81697 4.44523 2.31101C5.20708 1.95355 6.06364 1.76407 6.92123 1.76407C8.80835 1.76407 10.5431 2.64797 11.342 4.01736L11.7816 4.76197C11.8454 4.87054 11.9608 4.93916 12.0874 4.94428C12.214 4.9494 12.3345 4.88897 12.4065 4.78553C12.4117 4.77836 12.4374 4.74046 12.4426 4.73227L12.8811 3.98766C13.6801 2.62134 15.4148 1.73744 17.3009 1.73744C18.1595 1.73744 19.0161 1.92692 19.779 2.28438C20.8589 2.79034 21.697 3.74389 22.1386 4.97091C22.6647 6.43043 22.5823 8.13371 21.9193 9.52666Z" fill="#757575" stroke="#757575" stroke-width="0.5"/>
</svg>
