<svg width="260" height="260" viewBox="0 0 260 260" fill="none" xmlns="http://www.w3.org/2000/svg">
<rect width="260" height="260" rx="130" fill="white"/>
<circle cx="130" cy="130" r="129" fill="white"/>
<path fill-rule="evenodd" clip-rule="evenodd" d="M130.543 204.75H129.302C101.328 204.357 74.5295 194.056 54.2032 175.885C34.4847 156.442 23.4964 130.537 23.5431 103.603V99.8483H27.6394C53.715 99.8604 78.9647 108.495 99.014 124.255L97.8968 134.464C80.0347 118.614 56.7131 109.404 32.2322 108.531C33.4011 131.711 43.3083 153.73 60.1614 170.604C78.0664 186.391 101.362 195.591 125.826 196.536" fill="#555555"/>
<path fill-rule="evenodd" clip-rule="evenodd" d="M134.236 196.537C158.886 195.431 182.291 186.019 200.181 170.019C217.016 153.325 226.963 131.519 228.229 108.532C203.551 109.523 180.104 118.951 162.284 135.051L159.542 126.133C179.92 109.571 205.919 100.415 232.841 100.319H236.83V104.073C236.911 130.991 225.921 156.894 206.164 176.355C185.909 194.391 159.346 204.211 131.47 204.75H125.144" fill="#555555"/>
<path fill-rule="evenodd" clip-rule="evenodd" d="M130 67.2758C113.34 84.456 103.742 106.685 102.937 129.951C103.69 153.263 113.294 175.545 130 192.744C146.587 175.494 156.096 153.226 156.814 129.951C156.078 106.715 146.569 84.4901 130 67.2758V67.2758ZM130 204.268L127.007 201.681C106.91 182.534 95.313 156.881 94.5806 129.951C95.2023 103.08 106.717 77.4537 126.757 58.3389L130 55.752L132.993 58.3389C153.182 77.3908 164.835 103.028 165.544 129.951C164.854 156.913 153.201 182.593 132.993 201.681L130 204.268Z" fill="#555555"/>
</svg>
